<?xml version="1.0" encoding="UTF-8"?>
<svg width="43px" height="42px" viewBox="0 0 43 42" version="1.1" xmlns="http://www.w3.org/2000/svg" xmlns:xlink="http://www.w3.org/1999/xlink">
    <!-- Generator: Sketch 47.1 (45422) - http://www.bohemiancoding.com/sketch -->
    <title>adobe-illustrator-cc</title>
    <desc>Created with Sketch.</desc>
    <defs>
        <radialGradient cx="32.9351254%" cy="22.4100935%" fx="32.9351254%" fy="22.4100935%" r="0.139277297%" gradientTransform="translate(0.329351,0.224101),scale(0.972961,1.000000),translate(-0.329351,-0.224101)" id="radialGradient-1">
            <stop stop-color="#423325" stop-opacity="0.98" offset="0%"></stop>
            <stop stop-color="#1C0A00" offset="100%"></stop>
        </radialGradient>
    </defs>
    <g id="Web" stroke="none" stroke-width="1" fill="none" fill-rule="evenodd">
        <g id="Landing-page" transform="translate(-434.000000, -1701.000000)">
            <g id="adobe-illustrator-cc" transform="translate(434.000000, 1701.000000)">
                <g id="Shape">
                    <polygon fill="url(#radialGradient-1)" fill-rule="nonzero" points="1.78947819 1.84374227 41.1585755 1.84374227 41.1585755 40.1483196 1.78947819 40.1483196"></polygon>
                    <path d="M1.78947819,1.84374227 L41.1585755,1.84374227 L41.1585755,40.1483196 L1.78947819,40.1483196 L1.78947819,1.84374227 Z M0,41.938299 L42.9480537,41.938299 L42.9480537,0.0538350515 L0,0.0538350515 L0,41.938299 Z M28.1309463,14.9818763 C28.1309463,14.838701 28.1846242,14.7670412 28.3457299,14.7670412 L31.1552315,14.7670412 C31.2983003,14.7670412 31.369943,14.820732 31.369943,14.9818763 L31.369943,29.1044845 C31.369943,29.2475876 31.3341577,29.3192474 31.1552315,29.3192474 L28.3815151,29.3192474 C28.2025889,29.3192474 28.1488389,29.2297629 28.1488389,29.0865876 L28.1488389,14.9818763 L28.1309463,14.9818763 Z M27.9341275,10.918701 C27.9341275,9.77315464 28.7393674,9.093 29.7594631,9.093 C30.851057,9.093 31.5847265,9.82684536 31.5847265,10.918701 C31.5847265,12.1000412 30.8152718,12.7444021 29.7236779,12.7444021 C28.6856896,12.7444742 27.9341275,12.1000412 27.9341275,10.918701 Z M19.8813674,20.8707526 C19.3803742,18.8839072 18.1993171,14.5522784 17.7518574,12.4580515 L17.7160721,12.4580515 C17.340255,14.5522784 16.3918742,18.096299 15.6403121,20.8707526 L19.8813674,20.8707526 L19.8813674,20.8707526 Z M14.9065705,23.7704845 L13.4928372,29.1402784 C13.457052,29.2833814 13.4033742,29.3191753 13.224448,29.3191753 L10.5938725,29.3191753 C10.4149463,29.3191753 10.3790889,29.2654845 10.4149463,29.0507216 L15.497099,11.2587423 C15.5865621,10.9365979 15.6402399,10.6501753 15.6760252,9.77315464 C15.6760252,9.64787629 15.729703,9.59418557 15.8191661,9.59418557 L19.5771208,9.59418557 C19.7023691,9.59418557 19.756047,9.62997938 19.7919044,9.77315464 L25.4824782,29.0865155 C25.5182634,29.2296186 25.4824782,29.3191753 25.3393372,29.3191753 L22.3687299,29.3191753 C22.2255889,29.3191753 22.1360537,29.2833814 22.1003406,29.1581753 L20.6329295,23.7704845 L14.9065705,23.7704845 L14.9065705,23.7704845 Z" fill="#FF7F18" fill-rule="nonzero"></path>
                </g>
            </g>
        </g>
    </g>
</svg>