<?xml version="1.0" encoding="UTF-8"?>
<svg width="36px" height="44px" viewBox="0 0 36 44" version="1.1" xmlns="http://www.w3.org/2000/svg" xmlns:xlink="http://www.w3.org/1999/xlink">
    <!-- Generator: Sketch 47.1 (45422) - http://www.bohemiancoding.com/sketch -->
    <title>apple-black</title>
    <desc>Created with Sketch.</desc>
    <defs></defs>
    <g id="Web" stroke="none" stroke-width="1" fill="none" fill-rule="evenodd">
        <g id="Landing-page" transform="translate(-856.000000, -1699.000000)" fill="#000000">
            <g id="apple-black" transform="translate(856.000000, 1699.000000)">
                <g id="Shape">
                    <path d="M30.0008403,23.3356078 C30.0628359,29.9828235 35.8576543,32.1948235 35.9218556,32.2229804 C35.8728578,32.378902 34.9959387,35.3752157 32.8688665,38.4701961 C31.0300306,41.1460392 29.1217155,43.8119216 26.1154398,43.8671373 C23.1614705,43.9213333 22.2116061,42.1231373 18.8343807,42.1231373 C15.4581794,42.1231373 14.4028359,43.812 11.6065733,43.9214118 C8.70475274,44.0308235 6.49496718,41.028 4.64100656,38.3619608 C0.852498906,32.9086275 -2.0427046,22.9521569 1.84482276,16.2313725 C3.77606127,12.8938039 7.22733479,10.7803137 10.9733829,10.7261176 C13.8228972,10.672 16.5124201,12.6348235 18.254442,12.6348235 C19.9953611,12.6348235 23.2637199,10.2743529 26.6997112,10.6210196 C28.1381357,10.6806275 32.1758862,11.1995294 34.7685164,14.9780392 C34.5596061,15.1069804 29.9507396,17.7783529 30.0008403,23.3356078 M24.4491991,7.01317647 C25.9897943,5.15647059 27.0267046,2.57176471 26.7438249,0 C24.5231685,0.0888627451 21.8378993,1.47333333 20.2450766,3.32901961 C18.8176018,4.97231373 17.5674486,7.6025098 17.9047615,10.1233725 C20.3799387,10.3140392 22.9085252,8.87105882 24.4491991,7.01317647" fill-rule="nonzero"></path>
                </g>
            </g>
        </g>
    </g>
</svg>