<?xml version="1.0" encoding="UTF-8"?>
<svg width="43px" height="42px" viewBox="0 0 43 42" version="1.1" xmlns="http://www.w3.org/2000/svg" xmlns:xlink="http://www.w3.org/1999/xlink">
    <!-- Generator: Sketch 47.1 (45422) - http://www.bohemiancoding.com/sketch -->
    <title>indesign-cc</title>
    <desc>Created with Sketch.</desc>
    <defs>
        <radialGradient cx="32.9351254%" cy="22.4100935%" fx="32.9351254%" fy="22.4100935%" r="0.139277297%" gradientTransform="translate(0.329351,0.224101),scale(0.972961,1.000000),translate(-0.329351,-0.224101)" id="radialGradient-1">
            <stop stop-color="#4B2B36" stop-opacity="0.98" offset="0%"></stop>
            <stop stop-color="#250012" offset="100%"></stop>
        </radialGradient>
    </defs>
    <g id="Web" stroke="none" stroke-width="1" fill="none" fill-rule="evenodd">
        <g id="Landing-page" transform="translate(-523.000000, -1701.000000)">
            <g id="indesign-cc" transform="translate(523.000000, 1701.000000)">
                <g id="Shape">
                    <polygon fill="url(#radialGradient-1)" fill-rule="nonzero" points="1.78947819 1.84374227 41.1585755 1.84374227 41.1585755 40.1483196 1.78947819 40.1483196"></polygon>
                    <path d="M1.78947819,1.84374227 L41.1585755,1.84374227 L41.1585755,40.1483196 L1.78947819,40.1483196 L1.78947819,1.84374227 Z M0,41.938299 L42.9480537,41.938299 L42.9480537,0.0538350515 L0,0.0538350515 L0,41.938299 Z M27.1646728,17.4519381 C26.8962114,17.3266598 26.5382869,17.2729691 26.1087919,17.2729691 C23.8003557,17.2729691 22.1898037,19.0450515 22.1898037,21.9984021 C22.1898037,25.3634536 23.8361409,26.7237629 25.8941527,26.7237629 C26.3414681,26.7237629 26.8067483,26.6700722 27.1646728,26.509 L27.1646728,17.4519381 Z M26.2161477,14.5343814 C26.5919648,14.5343814 26.8067483,14.5343814 27.1646007,14.5701753 L27.1646007,9.80894845 C27.1646007,9.6836701 27.2540638,9.62997938 27.3434547,9.62997938 L30.2424916,9.62997938 C30.3856326,9.62997938 30.4214178,9.6836701 30.4214178,9.77315464 L30.4214178,26.5090722 C30.4214178,27.0101856 30.4214178,27.6367216 30.5108809,28.3168763 C30.5108809,28.4421546 30.4750956,28.4600515 30.3498473,28.5317113 C28.8108658,29.2655567 27.1824933,29.5877732 25.6614044,29.5877732 C21.7066309,29.5877732 18.8791644,27.1356082 18.8791644,22.1416495 C18.861344,17.8636392 21.6887383,14.5343814 26.2161477,14.5343814 L26.2161477,14.5343814 Z M15.7118826,29.0865876 C15.7118826,29.2654845 15.6760973,29.3192474 15.4792064,29.3192474 L12.7233826,29.3192474 C12.5444564,29.3192474 12.4907064,29.2297629 12.4907064,29.0865876 L12.4907064,9.86263918 C12.4907064,9.6836701 12.5801695,9.62990722 12.7233826,9.62990722 L15.497099,9.62990722 C15.6402399,9.62990722 15.7118826,9.68359794 15.7118826,9.84474227 L15.7118826,29.0865876 Z" fill="#FF408C" fill-rule="nonzero"></path>
                </g>
            </g>
        </g>
    </g>
</svg>