<?xml version="1.0" encoding="UTF-8"?>
<svg width="40px" height="41px" viewBox="0 0 40 41" version="1.1" xmlns="http://www.w3.org/2000/svg" xmlns:xlink="http://www.w3.org/1999/xlink">
    <!-- Generator: Sketch 47.1 (45422) - http://www.bohemiancoding.com/sketch -->
    <title>invision</title>
    <desc>Created with Sketch.</desc>
    <defs></defs>
    <g id="Web" stroke="none" stroke-width="1" fill="none" fill-rule="evenodd">
        <g id="Landing-page" transform="translate(-682.000000, -1701.000000)">
            <g id="invision" transform="translate(682.000000, 1701.000000)">
                <g id="Shape">
                    <path d="M36.3739063,0 L3.62609375,0 C1.6234375,0 0,1.66402344 0,3.71674609 L0,37.2832539 C0,39.3359766 1.6234375,41 3.62609375,41 L36.3739063,41 C38.3765625,41 40,39.3359766 40,37.2832539 L40,3.71674609 C40,1.66402344 38.3765625,0 36.3739063,0" fill="#DC395F" fill-rule="nonzero"></path>
                    <path d="M13.3679687,12.8997852 C14.6976562,12.8997852 15.8115625,11.831543 15.8115625,10.431457 C15.8115625,9.03233203 14.6976562,7.96425 13.3679687,7.96425 C12.0382813,7.96425 10.9246875,9.03233203 10.9246875,10.431457 C10.9246875,11.8313828 12.0382812,12.8997852 13.3679687,12.8997852 M8.30140625,26.1158789 C8.1578125,26.7420898 8.08578125,27.4182695 8.08578125,27.9698477 C8.08578125,30.1433281 9.235625,31.5861758 11.6792188,31.5861758 C13.7057812,31.5861758 15.34875,30.3526523 16.5317187,28.3607891 L15.809375,31.332168 L19.8335937,31.332168 L22.1335938,21.8767031 C22.7085937,19.4826875 23.8225,18.2400352 25.5115625,18.2400352 C26.8410938,18.2400352 27.6675,19.087582 27.6675,20.486707 C27.6675,20.8920625 27.6315625,21.3336133 27.4878125,21.8126406 L26.301875,26.1588008 C26.1221875,26.7850117 26.050625,27.411543 26.050625,28.0004375 C26.050625,30.0637305 27.2360937,31.5728828 29.715625,31.5728828 C31.8357812,31.5728828 33.5245312,30.173918 34.4589062,26.8220078 L32.8779687,26.1964375 C32.0873437,28.4419883 31.4045312,28.8479844 30.8654687,28.8479844 C30.3264062,28.8479844 30.0389062,28.4799453 30.0389062,27.743707 C30.0389062,27.4121836 30.1110937,27.0443047 30.2185938,26.6013125 L31.36875,22.3671016 C31.6560937,21.3728516 31.7640625,20.4911914 31.7640625,19.6811211 C31.7640625,16.5135508 29.8953125,14.860418 27.6315625,14.860418 C25.5115625,14.860418 23.3553125,16.8205703 22.2775,18.883543 L23.0678125,15.1807305 L16.9234375,15.1807305 L16.0609375,18.4421523 L18.9357813,18.4421523 L17.1654688,25.7068398 C15.7753125,28.8744102 13.2217188,28.9258203 12.90125,28.8523086 C12.375,28.7305898 12.0384375,28.52575 12.0384375,27.8249063 C12.0384375,27.4205117 12.1103125,26.839625 12.29,26.1392617 L14.9853125,15.1807305 L8.1578125,15.1807305 L7.2953125,18.4421523 L10.1339062,18.4421523 L8.3015625,26.1158789" fill="#FFFFFF" fill-rule="nonzero"></path>
                </g>
            </g>
        </g>
    </g>
</svg>