<?xml version="1.0" encoding="UTF-8"?>
<svg width="42px" height="42px" viewBox="0 0 42 42" version="1.1" xmlns="http://www.w3.org/2000/svg" xmlns:xlink="http://www.w3.org/1999/xlink">
    <!-- Generator: Sketch 47.1 (45422) - http://www.bohemiancoding.com/sketch -->
    <title>photoshop-cc</title>
    <desc>Created with Sketch.</desc>
    <defs>
        <radialGradient cx="32.9351254%" cy="22.4100935%" fx="32.9351254%" fy="22.4100935%" r="0.139277297%" gradientTransform="translate(0.329351,0.224101),scale(0.996126,1.000000),translate(-0.329351,-0.224101)" id="radialGradient-1">
            <stop stop-color="#34364E" stop-opacity="0.98" offset="0%"></stop>
            <stop stop-color="#0C0824" offset="100%"></stop>
        </radialGradient>
    </defs>
    <g id="Web" stroke="none" stroke-width="1" fill="none" fill-rule="evenodd">
        <g id="Landing-page" transform="translate(-350.000000, -1701.000000)">
            <g id="photoshop-cc" transform="translate(350.000000, 1701.000000)">
                <g id="Shape">
                    <polygon fill="url(#radialGradient-1)" fill-rule="nonzero" points="1.74786242 1.84374227 40.2013993 1.84374227 40.2013993 40.1483196 1.74786242 40.1483196"></polygon>
                    <path d="M1.74786242,1.84374227 L40.2013993,1.84374227 L40.2013993,40.1483196 L1.74786242,40.1483196 L1.74786242,1.84374227 Z M0,41.938299 L41.9492617,41.938299 L41.9492617,0.0538350515 L0,0.0538350515 L0,41.938299 Z M28.2807987,17.2371753 C26.899943,17.2371753 26.4280772,17.9531237 26.4280772,18.5437938 C26.4280772,19.1881546 26.7426544,19.6356495 28.5954463,20.6201237 C31.3396107,21.9805052 32.1961007,23.2871237 32.1961007,25.2023814 C32.1961007,28.0662474 30.0636846,29.6055979 27.1796376,29.6055979 C25.6589698,29.6055979 24.3480201,29.2833814 23.5964597,28.8359588 C23.4741242,28.782268 23.4566477,28.6927835 23.4566477,28.5495361 L23.4566477,25.9183299 C23.4566477,25.7393608 23.5440302,25.6855979 23.6664362,25.7751546 C24.7675973,26.5090722 26.026047,26.8312165 27.1796376,26.8312165 C28.5604933,26.8312165 29.1372886,26.2405464 29.1372886,25.4350412 C29.1372886,24.7906804 28.7352584,24.2179072 26.969849,23.2871237 C24.4878322,22.0699897 23.4566477,20.8349588 23.4566477,18.7765258 C23.4566477,16.4674639 25.222057,14.5522784 28.2807987,14.5522784 C29.7839899,14.5522784 30.8327215,14.7850103 31.4095168,15.0534639 C31.5493289,15.1429485 31.5842819,15.2861237 31.5842819,15.4114021 L31.5842819,17.863567 C31.5842819,18.0067423 31.4968993,18.096299 31.3220638,18.0425361 C30.5530268,17.5414948 29.4169128,17.2371753 28.2807987,17.2371753 L28.2807987,17.2371753 Z M13.2489564,19.3671959 C13.6509866,19.4029897 13.9656342,19.4029897 14.6647651,19.4029897 C16.7098691,19.4029897 18.6324966,18.6691443 18.6324966,15.8231753 C18.6324966,13.5499794 17.2516409,12.4043608 14.9269832,12.4043608 C14.2278523,12.4043608 13.563604,12.4401546 13.2489564,12.4580515 L13.2489564,19.3671959 Z M10.1377852,9.86263918 C10.1377852,9.73736082 10.3825268,9.64780412 10.5222685,9.64780412 C11.6409765,9.5941134 13.3014564,9.55831959 15.0318423,9.55831959 C19.8734698,9.55831959 21.7611443,12.2790103 21.7611443,15.7515155 C21.7611443,20.2979072 18.5450436,22.2489588 14.5948591,22.2489588 C13.9306812,22.2489588 13.7034866,22.2131649 13.2314799,22.2131649 L13.2314799,29.0865155 C13.2314799,29.2296907 13.1790503,29.3012784 13.0217617,29.3012784 L10.3475034,29.3012784 C10.2076913,29.3012784 10.1377148,29.2475876 10.1377148,29.0865155 L10.1377148,9.86263918 L10.1377852,9.86263918 Z" fill="#31C5F0" fill-rule="nonzero"></path>
                </g>
            </g>
        </g>
    </g>
</svg>