<?xml version="1.0" encoding="UTF-8"?>
<svg width="44px" height="41px" viewBox="0 0 44 41" version="1.1" xmlns="http://www.w3.org/2000/svg" xmlns:xlink="http://www.w3.org/1999/xlink">
    <!-- Generator: Sketch 47.1 (45422) - http://www.bohemiancoding.com/sketch -->
    <title>sketch-2</title>
    <desc>Created with Sketch.</desc>
    <defs></defs>
    <g id="Web" stroke="none" stroke-width="1" fill="none" fill-rule="evenodd">
        <g id="Landing-page" transform="translate(-604.000000, -1701.000000)">
            <g id="sketch-2" transform="translate(604.000000, 1701.000000)">
                <g>
                    <g id="a-link" transform="translate(0.078737, 14.731872)" fill-rule="nonzero" fill="#EA6C00">
                        <polygon id="a" points="8.86067368 0 21.8754105 26.2209302 0 0"></polygon>
                    </g>
                    <g id="b-link" transform="translate(32.717474, 27.842337) scale(-1, 1) translate(-32.717474, -27.842337) translate(21.601684, 14.731872)" fill-rule="nonzero" fill="#EA6C00">
                        <polygon id="b" points="8.86067368 0 21.8754105 26.2209302 0 0"></polygon>
                    </g>
                    <g id="c-link" transform="translate(8.938947, 14.731872)" fill-rule="nonzero" fill="#FDAD00">
                        <polygon id="c" points="0 0 26.0294737 0 13.0147368 26.2209302"></polygon>
                    </g>
                    <g id="d-link" transform="translate(8.938947, 0.200233)" fill-rule="nonzero" fill="#FDD231">
                        <polygon id="d" points="13.0147368 0 0.685010526 1.34155814 0 14.5316395"></polygon>
                    </g>
                    <g id="e-link" transform="translate(28.252632, 7.589767) scale(-1, 1) translate(-28.252632, -7.589767) translate(21.536842, 0.200233)" fill-rule="nonzero" fill="#FDD231">
                        <polygon id="e" points="13.0147368 0 0.685010526 1.34155814 0 14.5316395"></polygon>
                    </g>
                    <g id="f-link" transform="translate(38.970105, 8.216209) scale(-1, 1) translate(-38.970105, -8.216209) translate(34.106947, 1.541791)" fill-rule="nonzero" fill="#FDAD00">
                        <polygon id="f" points="0 13.1900814 9.54568421 0 8.86067368 13.1900814"></polygon>
                    </g>
                    <g id="g-link" transform="translate(0.078737, 1.541791)" fill-rule="nonzero" fill="#FDAD00">
                        <polygon id="g" points="0 13.1900814 9.54568421 0 8.86067368 13.1900814"></polygon>
                    </g>
                    <g id="h-link" transform="translate(8.938947, 0.200233)" fill-rule="nonzero" fill="#FEEEB7">
                        <polygon id="h" points="13.0147368 0 0 14.5316395 26.0294737 14.5316395"></polygon>
                    </g>
                </g>
            </g>
        </g>
    </g>
</svg>