<?xml version="1.0" encoding="UTF-8"?>
<svg width="47px" height="47px" viewBox="0 0 47 47" version="1.1" xmlns="http://www.w3.org/2000/svg" xmlns:xlink="http://www.w3.org/1999/xlink">
    <!-- Generator: Sketch 47.1 (45422) - http://www.bohemiancoding.com/sketch -->
    <title>slack-1</title>
    <desc>Created with Sketch.</desc>
    <defs></defs>
    <g id="Web" stroke="none" stroke-width="1" fill="none" fill-rule="evenodd">
        <g id="Landing-page" transform="translate(-765.000000, -1699.000000)">
            <g id="slack-1" transform="translate(765.000000, 1699.000000)">
                <g id="Shape">
                    <path d="M30.4699531,2.90775781 C29.7557734,0.709222656 27.3943906,-0.493867188 25.1962227,0.220679687 C22.9976875,0.934859375 21.7945977,3.29624219 22.5091445,5.49441016 L33.3314453,38.7918906 C34.0746328,40.8457539 36.2931797,41.9998242 38.4228672,41.3869883 C40.6443516,40.7475312 41.9983555,38.388168 41.2895,36.2065234 L30.4699531,2.90775781" fill="#DFA22F" fill-rule="nonzero"></path>
                    <path d="M13.7008672,8.35645312 C12.9863203,6.15810156 10.6251211,4.95501172 8.42695313,5.66919141 C6.22823438,6.38355469 5.02496094,8.74475391 5.73969141,10.9432891 L16.5621758,44.2409531 C17.3051797,46.2946328 19.5239102,47.4488867 21.6535977,46.8355 C23.8748984,46.1964102 25.2289023,43.8370469 24.5200469,41.6550352 L13.7008672,8.35645312" fill="#3CB187" fill-rule="nonzero"></path>
                    <path d="M44.0922422,30.4848242 C46.2907773,29.7706445 47.4935,27.4096289 46.7793203,25.2109102 C46.0651406,23.0127422 43.7037578,21.8094688 41.5055898,22.523832 L8.20810937,33.3465 C6.15424609,34.0893203 5.00017578,36.3078672 5.61301172,38.4375547 C6.25246875,40.6588555 8.61183203,42.013043 10.7934766,41.3041875 L44.0922422,30.4850078" fill="#CE1E5B" fill-rule="nonzero"></path>
                    <polyline fill="#392538" fill-rule="nonzero" points="15.1479531 39.8894141 23.1061914 37.3036797 20.5200898 29.3445234 12.5613008 31.9313594 15.1479531 39.8895977"></polyline>
                    <path d="M31.9172227,34.4405352 C34.925957,33.4632656 37.722457,32.5544766 39.8756445,31.8548008 L37.2891758,23.8941758 L29.3303867,26.4810117 L31.9172227,34.4405352" fill="#BB242A" fill-rule="nonzero"></path>
                    <path d="M38.6435469,13.7155547 C40.8418984,13.001375 42.0449883,10.6401758 41.3308086,8.44145703 C40.6166289,6.24328906 38.2552461,5.04019922 36.0567109,5.75437891 L2.75904687,16.5772305 C0.705367187,17.3196836 -0.448886719,19.5384141 0.1645,21.6681016 C0.803589844,23.8892187 3.16295312,25.2434062 5.34496484,24.5345508 L38.6435469,13.7153711" fill="#72C5CD" fill-rule="nonzero"></path>
                    <path d="M9.69778906,23.1205117 C11.8651133,22.4162461 14.6594102,21.5081914 17.6573125,20.5344102 C16.680043,17.5253086 15.7712539,14.7288086 15.0715781,12.5752539 L7.11095313,15.162457 L9.69778906,23.1205117" fill="#248C73" fill-rule="nonzero"></path>
                    <path d="M26.466875,17.672 L34.4267656,15.0855313 C33.5646589,12.4319536 32.7024415,9.77841193 31.8401133,7.12490625 L23.8800391,9.71210937 L26.466875,17.672" fill="#62803A" fill-rule="nonzero"></path>
                </g>
            </g>
        </g>
    </g>
</svg>