<?xml version="1.0" encoding="UTF-8"?>
<svg width="45px" height="45px" viewBox="10 0 45 45" version="1.1" xmlns="http://www.w3.org/2000/svg" xmlns:xlink="http://www.w3.org/1999/xlink">
    <!-- Generator: Sketch 47.1 (45422) - http://www.bohemiancoding.com/sketch -->
    <title>design-tool</title>
    <desc>Created with Sketch.</desc>
    <defs></defs>
    <g id="Web" stroke="none" stroke-width="1" fill="none" fill-rule="evenodd">
        <g id="Landing-page" transform="translate(-734.000000, -1466.000000)" fill-rule="nonzero" fill="#000000">
            <g id="design-tool" transform="translate(734.000000, 1466.000000)">
                <path d="M43.4600684,10.8628418 C44.4531445,9.86985352 45,8.54551758 45,7.13373047 C45,5.72194336 44.4531445,4.39751953 43.4600684,3.40461914 L41.5954688,1.53984375 C40.6025684,0.546855469 39.2781445,0 37.8664453,0 C36.4545703,0 35.1303223,0.546855469 34.1372461,1.53984375 L22.4981543,13.1788477 L9.33266602,0.0131835938 L0.00958007813,9.33626953 L13.1752441,22.5018457 L3.10763672,32.5694531 L0,45 L12.4306348,41.8922754 L22.4981543,31.8247559 L35.6637305,44.9904199 L44.9865527,35.6675098 L31.8211523,22.5018457 L43.4600684,10.8628418 Z M36.0018457,3.40426758 C36.4966699,2.90953125 37.1589258,2.63689453 37.8664453,2.63689453 C38.573877,2.63689453 39.2360449,2.90944336 39.7310449,3.40444336 L41.5956445,5.26904297 C42.0905566,5.76395508 42.3631934,6.42621094 42.3631934,7.13364258 C42.3631934,7.84107422 42.0905566,8.50324219 41.5956445,8.99824219 L40.6633887,9.93049805 L35.0695898,4.33669922 L36.0018457,3.40426758 Z M33.2049023,6.20129883 L38.7987012,11.7950977 L36.9340137,13.6597852 L31.3402148,8.06598633 L33.2049023,6.20129883 Z M3.7387793,9.33626953 L9.33257813,3.7424707 L11.8565332,6.26642578 L9.99193359,8.13102539 L11.8565332,9.995625 L13.7211328,8.13102539 L16.2450879,10.6549805 L14.3804883,12.5195801 L16.2450879,14.3841797 L18.1096875,12.5195801 L20.6336426,15.0435352 L15.0398438,20.637334 L3.7387793,9.33626953 Z M29.4757031,9.93058594 L31.3403906,11.7951855 L8.02731445,35.1080859 L6.16271484,33.2434863 L29.4757031,9.93058594 Z M3.62408203,41.375918 L5.01249023,35.822373 L9.17762695,39.9875098 L3.62408203,41.375918 Z M11.7565137,38.8371973 L9.89191406,36.9725977 L33.2048145,13.6596973 L35.0694141,15.5242969 L11.7565137,38.8371973 Z M32.4805078,26.8904004 L30.6159082,28.755 L32.4805078,30.6195996 L34.3451074,28.755 L36.8690625,31.2789551 L35.0044629,33.1435547 L36.8690625,35.0081543 L38.7336621,33.1435547 L41.2576172,35.6675098 L35.6638184,41.2613086 L24.3628418,29.960332 L29.9566406,24.3665332 L32.4805078,26.8904004 Z" id="Shape"></path>
            </g>
        </g>
    </g>
</svg>